<svg height='300px' width='300px'  fill="#000000" xmlns="http://www.w3.org/2000/svg" xmlns:xlink="http://www.w3.org/1999/xlink" version="1.1" x="0px" y="0px" viewBox="0 0 100 100" style="enable-background:new 0 0 100 100;" xml:space="preserve"><path d="M90,74.0039062c0-1.5166016-0.6210938-2.9277344-1.7021484-3.9472656  c0.4570312-0.7109375,0.7070312-1.5419922,0.7070312-2.3935547c0-2.4628906-2.0039062-4.4667969-4.4667969-4.4667969  s-4.4667969,2.0039062-4.4667969,4.4667969c0,0.8505859,0.25,1.6816406,0.7070312,2.3935547  c-1.0810547,1.0195312-1.7021484,2.4306641-1.7021484,3.9472656c0,2.6697998,1.9267578,4.8943481,4.4619141,5.3659668V88h-6.9931641  V43.0234375c0-0.2529297-0.0957031-0.4960938-0.2685547-0.6816406L63.4677734,28.5830078  c-0.1884766-0.203125-0.4541016-0.3183594-0.7314453-0.3183594c-0.0009766,0-0.0019531,0-0.0029297,0  C62.4541016,28.265625,62.1884766,28.3828125,62,28.5878906L51.0869141,40.4580688V11c0-0.5527344-0.4472656-1-1-1H25.0410156  c-0.5527344,0-1,0.4472656-1,1v77h-7.5791016v-8.630127c2.5351562-0.4716187,4.4619141-2.696167,4.4619141-5.3659668  c0-1.5166016-0.6210938-2.9277344-1.7021484-3.9472656c0.4570312-0.7119141,0.7070312-1.5429688,0.7070312-2.3935547  c0-2.4628906-2.0039062-4.4667969-4.4667969-4.4667969s-4.4667969,2.0039062-4.4667969,4.4667969  c0,0.8515625,0.25,1.6826172,0.7070312,2.3935547C10.6210938,71.0761719,10,72.4873047,10,74.0039062  c0,2.6697998,1.9267578,4.8943481,4.4619141,5.3659668V88H11c-0.5527344,0-1,0.4472656-1,1s0.4472656,1,1,1h78  c0.5527344,0,1-0.4472656,1-1s-0.4472656-1-1-1h-3.4619141v-8.630127C88.0732422,78.8982544,90,76.6737061,90,74.0039062z   M12,74.0039062c0-1.2001953,0.6191406-2.2988281,1.65625-2.9375c0.2675781-0.1650391,0.4414062-0.4453125,0.4707031-0.7578125  c0.0302734-0.3125-0.0888672-0.6210938-0.3212891-0.8320312c-0.5224609-0.4775391-0.8105469-1.1210938-0.8105469-1.8134766  c0-1.3603516,1.1064453-2.4667969,2.4667969-2.4667969s2.4667969,1.1064453,2.4667969,2.4667969  c0,0.6914062-0.2880859,1.3349609-0.8115234,1.8134766c-0.2324219,0.2109375-0.3515625,0.5195312-0.3212891,0.8320312  c0.0292969,0.3125,0.203125,0.5927734,0.4707031,0.7578125c1.0380859,0.6386719,1.6572266,1.7373047,1.6572266,2.9375  c0,1.9091797-1.5527344,3.4619141-3.4619141,3.4619141S12,75.9130859,12,74.0039062z M62.7412109,30.7373047l11.8037109,12.6796875  V88h-4.2578125V76.1669922c0-0.5527344-0.4472656-1-1-1H56.3447266c-0.5527344,0-1,0.4472656-1,1V88h-4.2578125V43.4133911  L62.7412109,30.7373047z M63.8876953,77.1669922h4.3994141V88h-4.3994141V77.1669922z M61.8876953,88h-4.5429688V77.1669922  h4.5429688V88z M26.0410156,12h23.0458984v76h-4.0517578V76.1669922c0-0.5527344-0.4472656-1-1-1H31.0927734  c-0.5527344,0-1,0.4472656-1,1V88h-4.0517578V12z M38.6357422,77.1669922h4.3994141V88h-4.3994141V77.1669922z M36.6357422,88  h-4.5429688V77.1669922h4.5429688V88z M81.0761719,74.0039062c0-1.2001953,0.6191406-2.2988281,1.6572266-2.9375  c0.2675781-0.1650391,0.4414062-0.4453125,0.4707031-0.7578125c0.0302734-0.3125-0.0888672-0.6210938-0.3212891-0.8320312  c-0.5234375-0.4785156-0.8115234-1.1220703-0.8115234-1.8134766c0-1.3603516,1.1064453-2.4667969,2.4667969-2.4667969  s2.4667969,1.1064453,2.4667969,2.4667969c0,0.6923828-0.2880859,1.3359375-0.8105469,1.8134766  c-0.2324219,0.2109375-0.3515625,0.5195312-0.3212891,0.8320312c0.0292969,0.3125,0.203125,0.5927734,0.4707031,0.7578125  C87.3808594,71.7050781,88,72.8037109,88,74.0039062c0,1.9091797-1.5527344,3.4619141-3.4619141,3.4619141  S81.0761719,75.9130859,81.0761719,74.0039062z"></path><path d="M65.3984375,55.4755859h4.7167969c0.5527344,0,1-0.4472656,1-1v-6.4121094c0-0.5527344-0.4472656-1-1-1h-4.7167969  c-0.5527344,0-1,0.4472656-1,1v6.4121094C64.3984375,55.0283203,64.8457031,55.4755859,65.3984375,55.4755859z   M66.3984375,49.0634766h2.7167969v4.4121094h-2.7167969V49.0634766z"></path><path d="M55.4775391,55.4755859h4.7177734c0.5527344,0,1-0.4472656,1-1v-6.4121094c0-0.5527344-0.4472656-1-1-1h-4.7177734  c-0.5527344,0-1,0.4472656-1,1v6.4121094C54.4775391,55.0283203,54.9248047,55.4755859,55.4775391,55.4755859z   M56.4775391,49.0634766h2.7177734v4.4121094h-2.7177734V49.0634766z"></path><path d="M65.3984375,68.4023438h4.7167969c0.5527344,0,1-0.4472656,1-1v-6.4121094c0-0.5527344-0.4472656-1-1-1h-4.7167969  c-0.5527344,0-1,0.4472656-1,1v6.4121094C64.3984375,67.9550781,64.8457031,68.4023438,65.3984375,68.4023438z   M66.3984375,61.9902344h2.7167969v4.4121094h-2.7167969V61.9902344z"></path><path d="M55.4775391,68.4023438h4.7177734c0.5527344,0,1-0.4472656,1-1v-6.4121094c0-0.5527344-0.4472656-1-1-1h-4.7177734  c-0.5527344,0-1,0.4472656-1,1v6.4121094C54.4775391,67.9550781,54.9248047,68.4023438,55.4775391,68.4023438z   M56.4775391,61.9902344h2.7177734v4.4121094h-2.7177734V61.9902344z"></path><path d="M40.1650391,55.4755859h4.7177734c0.5527344,0,1-0.4472656,1-1v-6.4121094c0-0.5527344-0.4472656-1-1-1h-4.7177734  c-0.5527344,0-1,0.4472656-1,1v6.4121094C39.1650391,55.0283203,39.6123047,55.4755859,40.1650391,55.4755859z   M41.1650391,49.0634766h2.7177734v4.4121094h-2.7177734V49.0634766z"></path><path d="M30.2451172,55.4755859h4.7167969c0.5527344,0,1-0.4472656,1-1v-6.4121094c0-0.5527344-0.4472656-1-1-1h-4.7167969  c-0.5527344,0-1,0.4472656-1,1v6.4121094C29.2451172,55.0283203,29.6923828,55.4755859,30.2451172,55.4755859z   M31.2451172,49.0634766h2.7167969v4.4121094h-2.7167969V49.0634766z"></path><path d="M40.1650391,68.4023438h4.7177734c0.5527344,0,1-0.4472656,1-1v-6.4121094c0-0.5527344-0.4472656-1-1-1h-4.7177734  c-0.5527344,0-1,0.4472656-1,1v6.4121094C39.1650391,67.9550781,39.6123047,68.4023438,40.1650391,68.4023438z   M41.1650391,61.9902344h2.7177734v4.4121094h-2.7177734V61.9902344z"></path><path d="M30.2451172,68.4023438h4.7167969c0.5527344,0,1-0.4472656,1-1v-6.4121094c0-0.5527344-0.4472656-1-1-1h-4.7167969  c-0.5527344,0-1,0.4472656-1,1v6.4121094C29.2451172,67.9550781,29.6923828,68.4023438,30.2451172,68.4023438z   M31.2451172,61.9902344h2.7167969v4.4121094h-2.7167969V61.9902344z"></path><path d="M40.1650391,29.6240234h4.7177734c0.5527344,0,1-0.4472656,1-1v-6.4121094c0-0.5527344-0.4472656-1-1-1h-4.7177734  c-0.5527344,0-1,0.4472656-1,1v6.4121094C39.1650391,29.1767578,39.6123047,29.6240234,40.1650391,29.6240234z   M41.1650391,23.2119141h2.7177734v4.4121094h-2.7177734V23.2119141z"></path><path d="M30.2451172,29.6240234h4.7167969c0.5527344,0,1-0.4472656,1-1v-6.4121094c0-0.5527344-0.4472656-1-1-1h-4.7167969  c-0.5527344,0-1,0.4472656-1,1v6.4121094C29.2451172,29.1767578,29.6923828,29.6240234,30.2451172,29.6240234z   M31.2451172,23.2119141h2.7167969v4.4121094h-2.7167969V23.2119141z"></path><path d="M40.1650391,42.5498047h4.7177734c0.5527344,0,1-0.4472656,1-1v-6.4121094c0-0.5527344-0.4472656-1-1-1h-4.7177734  c-0.5527344,0-1,0.4472656-1,1v6.4121094C39.1650391,42.1025391,39.6123047,42.5498047,40.1650391,42.5498047z   M41.1650391,36.1376953h2.7177734v4.4121094h-2.7177734V36.1376953z"></path><path d="M30.2451172,42.5498047h4.7167969c0.5527344,0,1-0.4472656,1-1v-6.4121094c0-0.5527344-0.4472656-1-1-1h-4.7167969  c-0.5527344,0-1,0.4472656-1,1v6.4121094C29.2451172,42.1025391,29.6923828,42.5498047,30.2451172,42.5498047z   M31.2451172,36.1376953h2.7167969v4.4121094h-2.7167969V36.1376953z"></path></svg>